<svg xmlns="http://www.w3.org/2000/svg" height="512px" viewBox="0 0 512 512" width="512px"><g><path d="m256 92.78125c-90.59375 0-164.296875 73.707031-164.296875 164.300781s73.703125 164.296875 164.296875 164.296875c32.480469 0 63.890625-9.464844 90.832031-27.371094 4.652344-3.089843 5.917969-9.367187 2.824219-14.019531-3.089844-4.652343-9.367188-5.917969-14.019531-2.824219-23.617188 15.695313-51.152344 23.988282-79.636719 23.988282-79.441406 0-144.070312-64.628906-144.070312-144.070313 0-79.441406 64.628906-144.070312 144.070312-144.070312s144.070312 64.628906 144.070312 144.070312c0 19.671875-3.890624 38.734375-11.5625 56.65625-.976562 2.277344-2.027343 4.570313-3.125 6.804688-2.464843 5.011719-.398437 11.074219 4.617188 13.539062 5.011719 2.460938 11.074219.394531 13.535156-4.617187 1.253906-2.550782 2.453125-5.164063 3.566406-7.761719 8.757813-20.457031 13.199219-42.195313 13.199219-64.621094 0-90.59375-73.707031-164.300781-164.300781-164.300781zm0 0" data-original="#000000" class="active-path" data-old_color="#000000" fill="#9F0202"></path><path d="m184.785156 283.898438v44.058593c0 13.171875 10.71875 23.890625 23.894532 23.890625h94.476562c13.175781 0 23.894531-10.71875 23.894531-23.890625v-44.058593c0-19.769532-10.96875-36.957032-27.429687-45.585938 7.898437-9.699219 12.644531-22.0625 12.644531-35.515625 0-31.070313-25.277344-56.347656-56.347656-56.347656-31.070313 0-56.34375 25.277343-56.34375 56.347656 0 13.453125 4.746093 25.816406 12.644531 35.519531-16.460938 8.628906-27.433594 25.824219-27.433594 45.582032zm71.132813-117.21875c19.914062 0 36.117187 16.203124 36.117187 36.117187s-16.203125 36.117187-36.117187 36.117187c-19.914063 0-36.117188-16.203124-36.117188-36.117187s16.203125-36.117187 36.117188-36.117187zm-50.902344 117.21875c0-15.324219 10.855469-28.109376 25.648437-30.757813 7.601563 3.828125 16.175782 6 25.253907 6s17.652343-2.171875 25.253906-6c14.796875 2.648437 25.648437 15.425781 25.648437 30.757813v44.058593c0 2.019531-1.644531 3.664063-3.667968 3.664063h-94.472656c-2.023438 0-3.667969-1.644532-3.667969-3.664063v-44.058593zm0 0" data-original="#000000" class="active-path" data-old_color="#000000" fill="#9F0202"></path><path d="m501.886719 251.019531h-15.589844c-1.519531-59.265625-25.3125-114.757812-67.394531-156.839843-41.121094-41.121094-95.050782-64.769532-152.789063-67.246094v-16.820313c0-5.585937-4.527343-10.113281-10.113281-10.113281s-10.113281 4.527344-10.113281 10.113281v16.820313c-57.738281 2.476562-111.667969 26.125-152.789063 67.246094-42.082031 42.082031-65.875 97.574218-67.394531 156.839843h-15.589844c-5.585937 0-10.113281 4.53125-10.113281 10.113281 0 5.585938 4.527344 10.113282 10.113281 10.113282h15.953125c3.386719 56.207031 26.875 108.582031 67.03125 148.738281 41.121094 41.121094 95.050782 64.769531 152.789063 67.246094v14.65625c0 5.585937 4.527343 10.113281 10.113281 10.113281s10.113281-4.527344 10.113281-10.113281v-14.65625c57.738281-2.476563 111.667969-26.125 152.789063-67.246094 40.15625-40.15625 63.644531-92.527344 67.03125-148.738281h15.953125c5.585937 0 10.113281-4.527344 10.113281-10.113282 0-5.582031-4.527344-10.113281-10.113281-10.113281zm-235.773438 215.964844v-16.507813c0-5.582031-4.527343-10.113281-10.113281-10.113281s-10.113281 4.53125-10.113281 10.113281v16.507813c-106.492188-5.070313-192.460938-89.777344-199.550781-195.734375h15.1875c5.585937 0 10.113281-4.53125 10.113281-10.113281 0-5.585938-4.527344-10.117188-10.113281-10.117188h-15.582032c3.125-109.714843 90.75-198.640625 199.945313-203.839843v14.34375c0 5.582031 4.527343 10.113281 10.113281 10.113281s10.113281-4.53125 10.113281-10.113281v-14.34375c109.195313 5.199218 196.820313 94.125 199.945313 203.839843h-15.582032c-5.585937 0-10.113281 4.53125-10.113281 10.113281 0 5.585938 4.527344 10.113282 10.113281 10.113282h15.1875c-7.089843 105.960937-93.058593 190.667968-199.550781 195.738281zm0 0" data-original="#000000" class="active-path" data-old_color="#000000" fill="#9F0202"></path><path d="m376.097656 350.179688c-5.179687-2.09375-11.074218.410156-13.167968 5.585937l-.125.304687c-2.09375 5.179688.410156 11.074219 5.585937 13.167969 1.242187.5 2.527344.738281 3.789063.738281 4 0 7.789062-2.390624 9.378906-6.324218l.125-.304688c2.09375-5.179687-.410156-11.074218-5.585938-13.167968zm0 0" data-original="#000000" class="active-path" data-old_color="#000000" fill="#9F0202"></path></g></svg>